<svg xmlns="http://www.w3.org/2000/svg" width="16" height="16" viewBox="0 0 16 16">
  <path d="M5.5 3a1.5 1.5 0 0 0-1.5 1.5v2a1.5 1.5 0 0 1-1.5 1.5a1.5 1.5 0 0 1 1.5 1.5v2a1.5 1.5 0 0 0 1.5 1.5M10.5 3a1.5 1.5 0 0 1 1.5 1.5v2a1.5 1.5 0 0 0 1.5 1.5a1.5 1.5 0 0 0-1.5 1.5v2a1.5 1.5 0 0 1-1.5 1.5" fill="none" stroke="#3B4250" stroke-width="4" stroke-linecap="round" stroke-linejoin="round"/>
  <path d="M5.5 3a1.5 1.5 0 0 0-1.5 1.5v2a1.5 1.5 0 0 1-1.5 1.5a1.5 1.5 0 0 1 1.5 1.5v2a1.5 1.5 0 0 0 1.5 1.5M10.5 3a1.5 1.5 0 0 1 1.5 1.5v2a1.5 1.5 0 0 0 1.5 1.5a1.5 1.5 0 0 0-1.5 1.5v2a1.5 1.5 0 0 1-1.5 1.5" fill="none" stroke="#7A55C8" stroke-width="2" stroke-linecap="round" stroke-linejoin="round"/>
</svg>
